<?xml version="1.0" encoding="UTF-8" standalone="no"?>
<!-- Created with Inkscape (http://www.inkscape.org/) -->

<svg
   xmlns:dc="http://purl.org/dc/elements/1.1/"
   xmlns:cc="http://creativecommons.org/ns#"
   xmlns:rdf="http://www.w3.org/1999/02/22-rdf-syntax-ns#"
   xmlns:svg="http://www.w3.org/2000/svg"
   xmlns="http://www.w3.org/2000/svg"
   xmlns:sodipodi="http://sodipodi.sourceforge.net/DTD/sodipodi-0.dtd"
   xmlns:inkscape="http://www.inkscape.org/namespaces/inkscape"
   width="36"
   height="25.00004"
   id="svg3737"
   version="1.1"
   inkscape:version="0.48.4 r9939"
   sodipodi:docname="logo.svg">
  <defs
     id="defs3739" />
  <sodipodi:namedview
     id="base"
     pagecolor="#ffffff"
     bordercolor="#666666"
     borderopacity="1.0"
     inkscape:pageopacity="0.0"
     inkscape:pageshadow="2"
     inkscape:zoom="6.84"
     inkscape:cx="28.824131"
     inkscape:cy="6.0587504"
     inkscape:document-units="px"
     inkscape:current-layer="svg3737"
     showgrid="false"
     inkscape:window-width="633"
     inkscape:window-height="706"
     inkscape:window-x="506"
     inkscape:window-y="63"
     inkscape:window-maximized="0"
     fit-margin-top="0"
     fit-margin-left="0"
     fit-margin-right="0"
     fit-margin-bottom="0" />
  <metadata
     id="metadata3742">
    <rdf:RDF>
      <cc:Work
         rdf:about="">
        <dc:format>image/svg+xml</dc:format>
        <dc:type
           rdf:resource="http://purl.org/dc/dcmitype/StillImage" />
        <dc:title></dc:title>
      </cc:Work>
    </rdf:RDF>
  </metadata>
  <path
     inkscape:connector-curvature="0"
     style="fill:#333333;fill-opacity:1;fill-rule:nonzero;stroke:none;display:inline"
     d="M 12.42793,5.4321291e-8 C 5.56509,5.4321291e-8 0,5.5904001 0,12.49551 0,19.40063 5.56509,25 12.42793,25 c 1.23965,0 2.41004,-0.24298 3.53938,-0.58306 -0.048,-0.0314 -0.10392,-0.0488 -0.15156,-0.0807 C 15.01114,23.79617 14.25628,23.18119 13.5691,22.49735 13.2255,22.15543 12.89672,21.7945 12.58841,21.42092 12.35613,21.13947 12.14788,20.83984 11.93759,20.54184 7.72933,20.28246 4.38632,16.79492 4.38632,12.49555 c 0,-4.3175999 3.37126,-7.8051899 7.60476,-8.0373099 0.14749,-0.008 0.28736,-0.0448 0.43685,-0.0448 2.77975,0 5.22688,1.41484 6.66866,3.57014 0.86147,1.28782 1.36403,2.8408699 1.36403,4.5120199 0,1.66834 -0.50523,3.21495 -1.36403,4.50305 0.14386,0.15304 0.26153,0.3424 0.41901,0.47543 0.39526,0.33388 0.83107,0.60594 1.29272,0.81629 0.46164,0.21034 0.95284,0.35805 1.4532,0.44851 0.27503,0.0497 0.55778,0.0395 0.83803,0.0538 1.08274,-1.85588 1.7474,-3.98916 1.7474,-6.2971 0,-2.32314 -0.66923,-4.4702799 -1.76523,-6.3329699 -1.58144,-2.68776 -4.11873,-4.70553 -7.15899,-5.60639005 C 14.80736,0.22573005 13.65021,7.0054321e-5 12.42793,7.0054321e-5 z m 11.15305,0 C 22.33885,5.4321291e-8 21.16449,0.23318005 20.03269,0.57409005 c 0.49786,0.32757 0.99786,0.65461005 1.45319,1.04055005 0.61198,0.51869 1.18191,1.08417 1.70282,1.69537 0.30613,0.35918 0.55895,0.76113 0.82912,1.14819 4.23296,0.23212 7.59585,3.71971 7.59585,8.0373099 0,4.46802 -3.59202,8.09114 -8.03269,8.09114 -4.44066,0 -8.04161,-3.62312 -8.04161,-8.09114 0,-1.63965 0.49496,-3.1580299 1.32838,-4.4312799 -0.12197,-0.13006 -0.2343,-0.27497 -0.36552,-0.39469 -0.28561,-0.26061 -0.59356,-0.49591 -0.91827,-0.69968 -0.32472,-0.20377 -0.65892,-0.37521 -1.01635,-0.5113 -0.35744,-0.1361 -0.73067,-0.22946 -1.11442,-0.28705 -0.17021,-0.0255 -0.35151,-0.009 -0.526,-0.0179 -1.10072,1.86476 -1.77414,4.0149199 -1.77414,6.3419399 0,6.90512 5.56509,12.50449 12.42793,12.50449 C 30.44382,25.00004 36,19.40067 36,12.49555 36,5.5904401 30.44382,4.0054321e-5 23.58098,4.0054321e-5 z"
     id="path3621" />
</svg>
